<svg width="40" height="30" viewBox="0 0 40 30" fill="none" xmlns="http://www.w3.org/2000/svg">
<path d="M24.1786 17.8018C22.6381 17.8018 21.3887 16.5477 21.3887 15.0015C21.3887 13.4521 22.6381 12.2012 24.1786 12.2012C25.719 12.2012 26.9684 13.4521 26.9684 15.0015C26.9684 16.5477 25.719 17.8018 24.1786 17.8018Z" fill="#007FFF"/>
<path d="M8.60357 15.3826L0.161317 23.8533C-0.0537723 24.0692 -0.0537723 24.4185 0.161317 24.6312L2.92585 27.4061C3.14093 27.622 3.48887 27.622 3.7008 27.4061L12.143 18.9322C12.3581 18.7163 12.7061 18.7163 12.918 18.9322L21.7461 27.7934L21.7493 27.7902L23.7863 29.8349C24.0014 30.0508 24.3494 30.0508 24.5613 29.8349L38.9564 15.3858C39.1715 15.1699 39.1715 14.8206 38.9564 14.6079L24.5644 0.161922C24.3494 -0.053974 24.0014 -0.053974 23.7895 0.161922L21.762 2.19706L21.7493 2.18436L12.9212 11.0488C12.7061 11.2647 12.3581 11.2647 12.1462 11.0488L3.70396 2.57488C3.48887 2.35898 3.14093 2.35898 2.92901 2.57488L0.16448 5.34977C-0.0506092 5.56567 -0.0506092 5.91491 0.16448 6.12763L8.60357 14.6015C8.81549 14.8174 8.81549 15.1667 8.60357 15.3826ZM32.0546 15.3889L24.6498 22.8215C24.4348 23.0374 24.0868 23.0374 23.8749 22.8215L16.4606 15.3826C16.2456 15.1667 16.2456 14.8174 16.4606 14.6047L23.8654 7.17219C24.0805 6.95629 24.4284 6.95629 24.6404 7.17219L32.0514 14.6111C32.2665 14.827 32.2665 15.1762 32.0546 15.3889Z" fill="#007FFF"/>
</svg>
