<?xml version="1.0"?>
<svg width="40" height="30" xmlns="http://www.w3.org/2000/svg" xmlns:svg="http://www.w3.org/2000/svg">
 <g class="layer">
  <title>Layer 1</title>
  <path d="m24.18,17.73c-1.54,0 -2.79,-1.25 -2.79,-2.8c0,-1.55 1.25,-2.8 2.79,-2.8c1.54,0 2.79,1.25 2.79,2.8c0,1.55 -1.25,2.8 -2.79,2.8z" fill="#ffffff" id="svg_1"/>
  <path d="m8.82,15.38l-8.44,8.47c-0.21,0.22 -0.21,0.57 0,0.78l2.77,2.78c0.21,0.21 0.56,0.21 0.77,0l8.44,-8.48c0.22,-0.21 0.57,-0.21 0.78,0l8.83,8.86l0,0l2.04,2.04c0.21,0.22 0.56,0.22 0.77,0l14.4,-14.44c0.21,-0.22 0.21,-0.57 0,-0.78l-14.4,-14.45c-0.21,-0.21 -0.56,-0.21 -0.77,0l-2.03,2.04l-0.01,-0.02l-8.83,8.87c-0.21,0.21 -0.56,0.21 -0.77,0l-8.45,-8.48c-0.21,-0.21 -0.56,-0.21 -0.77,0l-2.77,2.78c-0.21,0.22 -0.21,0.56 0,0.78l8.44,8.47c0.22,0.22 0.22,0.57 0,0.78zm23.45,0.01l-7.4,7.43c-0.22,0.22 -0.56,0.22 -0.78,0l-7.41,-7.44c-0.21,-0.21 -0.21,-0.56 0,-0.78l7.41,-7.43c0.21,-0.21 0.56,-0.21 0.77,0l7.41,7.44c0.22,0.22 0.22,0.57 0,0.78z" fill="#ffffff" id="svg_2" transform="matrix(1 0 0 1 0 0)"/>
 </g>
</svg>